<svg width="96" height="96" viewBox="0 0 24 24" xmlns="http://www.w3.org/2000/svg"><defs><clipPath id="clip-a-1"><rect width="13" height="24" x="0" y="0"></rect></clipPath><clipPath id="clip-b-1"><rect width="12" height="24" x="12" y="0"></rect></clipPath></defs><g style="fill: #00acc1" clip-path="url(#clip-a-1)"><circle cy="10" cx="12" r="9"></circle><rect width="10" height="9" x="7" y="14" rx="1.6666667" ry="1"></rect></g><g style="fill: #0097a7" clip-path="url(#clip-b-1)"><circle cy="10" cx="12" r="9"></circle><rect width="10" height="9" x="7" y="14" rx="1.6666667" ry="1"></rect></g><g style="fill: #dce775" clip-path="url(#clip-a-1)"><path d="m 6,7 -2,2 4,4 3,-1 V 10 L 10.95313,9.970703 C 10.733059,11.127302 9.7218293,12 8.5,12 7.116667,12 6,10.883333 6,9.5 6,8.7128681 6.3690487,8.0203566 6.9355469,7.5625 Z M 7.8867188,8.1328125 C 7.3644757,8.3671413 7,8.8893367 7,9.5 7,10.33 7.67,11 8.5,11 9.33,11 10,10.33 10,9.5 10,9.463163 9.99088,9.42874 9.988281,9.3925781 Z"></path><path d="M 18,7 17.064453,7.5625 C 17.630951,8.0203566 18,8.7128681 18,9.5 18,10.883333 16.883333,12 15.5,12 14.278171,12 13.266941,11.127302 13.046875,9.9707031 L 13,10 v 2 l 3,1 4,-4 z M 16.113281,8.1328125 14.011719,9.3925781 C 14.009124,9.4287398 14,9.4631634 14,9.5 14,10.33 14.67,11 15.5,11 16.33,11 17,10.33 17,9.5 17,8.8893367 16.635524,8.3671413 16.113281,8.1328125 Z"></path></g><g style="fill: #d4e157" clip-path="url(#clip-b-1)"><path d="m 6,7 -2,2 4,4 3,-1 V 10 L 10.95313,9.970703 C 10.733059,11.127302 9.7218293,12 8.5,12 7.116667,12 6,10.883333 6,9.5 6,8.7128681 6.3690487,8.0203566 6.9355469,7.5625 Z M 7.8867188,8.1328125 C 7.3644757,8.3671413 7,8.8893367 7,9.5 7,10.33 7.67,11 8.5,11 9.33,11 10,10.33 10,9.5 10,9.463163 9.99088,9.42874 9.988281,9.3925781 Z"></path><path d="M 18,7 17.064453,7.5625 C 17.630951,8.0203566 18,8.7128681 18,9.5 18,10.883333 16.883333,12 15.5,12 14.278171,12 13.266941,11.127302 13.046875,9.9707031 L 13,10 v 2 l 3,1 4,-4 z M 16.113281,8.1328125 14.011719,9.3925781 C 14.009124,9.4287398 14,9.4631634 14,9.5 14,10.33 14.67,11 15.5,11 16.33,11 17,10.33 17,9.5 17,8.8893367 16.635524,8.3671413 16.113281,8.1328125 Z"></path></g><g style="fill: #dce775" clip-path="url(#clip-a-1)"><path d="m 12,14 c 2.33,0 4.31,1.46 5.11,3.5 H 6.89 C 7.69,15.46 9.67,14 12,14 Z"></path><path d="m 8,16 1,5 1,-5 z"></path><path d="m 14,16 1,5 1,-5 z"></path></g><g style="fill: #d4e157" clip-path="url(#clip-b-1)"><path d="m 12,14 c 2.33,0 4.31,1.46 5.11,3.5 H 6.89 C 7.69,15.46 9.67,14 12,14 Z"></path><path d="m 8,16 1,5 1,-5 z"></path><path d="m 14,16 1,5 1,-5 z"></path></g></svg>