<svg width="96" height="96" viewBox="0 0 24 24" xmlns="http://www.w3.org/2000/svg"><defs><clipPath id="clip-a-4"><rect width="13" height="24" x="0" y="0"></rect></clipPath><clipPath id="clip-b-4"><rect width="12" height="24" x="12" y="0"></rect></clipPath></defs><g style="fill: #f4511e" clip-path="url(#clip-a-4)"><path d="M 21.999999,17.773502 12,23.547005 2.0000006,17.773502 l 0,-11.5470044 L 12,0.4529953 21.999999,6.2264977 Z"></path></g><g style="fill: #e64a19" clip-path="url(#clip-b-4)"><path d="M 21.999999,17.773502 12,23.547005 2.0000006,17.773502 l 0,-11.5470044 L 12,0.4529953 21.999999,6.2264977 Z"></path></g><g style="fill: #81c784" clip-path="url(#clip-a-4)"><path d="m 12,8 c -0.989493,0 -1.8112,0.857662 -2,2 h 0.753315 C 10.935894,9.418302 11.466399,9 12,9 c 0.533601,0 1.064106,0.418302 1.246685,1 H 14 C 13.8112,8.857662 12.989493,8 12,8 Z"></path><rect width="6" height="6" x="5" y="7" rx="1" ry="1"></rect><rect ry="1" rx="1" y="7" x="13" height="6" width="6"></rect></g><g style="fill: #66bb6a" clip-path="url(#clip-b-4)"><path d="m 12,8 c -0.989493,0 -1.8112,0.857662 -2,2 h 0.753315 C 10.935894,9.418302 11.466399,9 12,9 c 0.533601,0 1.064106,0.418302 1.246685,1 H 14 C 13.8112,8.857662 12.989493,8 12,8 Z"></path><rect width="6" height="6" x="5" y="7" rx="1" ry="1"></rect><rect ry="1" rx="1" y="7" x="13" height="6" width="6"></rect></g><g style="fill: #4dd0e1" clip-path="url(#clip-a-4)"><path d="m 6,14 c -0.554,0 -1,0.446 -1,1 v 3 c 0,0.554 0.446,1 1,1 h 12 c 0.554,0 1,-0.446 1,-1 v -3 c 0,-0.554 -0.446,-1 -1,-1 z m 1.5,1 C 7.777,15 8,15.223 8,15.5 v 2 C 8,17.777 7.777,18 7.5,18 7.223,18 7,17.777 7,17.5 v -2 C 7,15.223 7.223,15 7.5,15 Z m 3,0 c 0.277,0 0.5,0.223 0.5,0.5 v 2 C 11,17.777 10.777,18 10.5,18 10.223,18 10,17.777 10,17.5 v -2 C 10,15.223 10.223,15 10.5,15 Z m 3,0 c 0.277,0 0.5,0.223 0.5,0.5 v 2 C 14,17.777 13.777,18 13.5,18 13.223,18 13,17.777 13,17.5 v -2 C 13,15.223 13.223,15 13.5,15 Z m 3,0 c 0.277,0 0.5,0.223 0.5,0.5 v 2 C 17,17.777 16.777,18 16.5,18 16.223,18 16,17.777 16,17.5 v -2 C 16,15.223 16.223,15 16.5,15 Z"></path></g><g style="fill: #26c6da" clip-path="url(#clip-b-4)"><path d="m 6,14 c -0.554,0 -1,0.446 -1,1 v 3 c 0,0.554 0.446,1 1,1 h 12 c 0.554,0 1,-0.446 1,-1 v -3 c 0,-0.554 -0.446,-1 -1,-1 z m 1.5,1 C 7.777,15 8,15.223 8,15.5 v 2 C 8,17.777 7.777,18 7.5,18 7.223,18 7,17.777 7,17.5 v -2 C 7,15.223 7.223,15 7.5,15 Z m 3,0 c 0.277,0 0.5,0.223 0.5,0.5 v 2 C 11,17.777 10.777,18 10.5,18 10.223,18 10,17.777 10,17.5 v -2 C 10,15.223 10.223,15 10.5,15 Z m 3,0 c 0.277,0 0.5,0.223 0.5,0.5 v 2 C 14,17.777 13.777,18 13.5,18 13.223,18 13,17.777 13,17.5 v -2 C 13,15.223 13.223,15 13.5,15 Z m 3,0 c 0.277,0 0.5,0.223 0.5,0.5 v 2 C 17,17.777 16.777,18 16.5,18 16.223,18 16,17.777 16,17.5 v -2 C 16,15.223 16.223,15 16.5,15 Z"></path></g></svg>