<svg width="96" height="96" viewBox="0 0 24 24" xmlns="http://www.w3.org/2000/svg"><defs><clipPath id="clip-a-2"><rect width="13" height="24" x="0" y="0"></rect></clipPath><clipPath id="clip-b-2"><rect width="12" height="24" x="12" y="0"></rect></clipPath></defs><g style="fill: #c0ca33" clip-path="url(#clip-a-2)"><path d="M 7,2 6,6 H 2 l 2,8 -2,8 H 22 L 20,14 22,6 H 18 L 17,2 Z"></path></g><g style="fill: #afb42b" clip-path="url(#clip-b-2)"><path d="M 7,2 6,6 H 2 l 2,8 -2,8 H 22 L 20,14 22,6 H 18 L 17,2 Z"></path></g><g style="fill: #4db6ac" clip-path="url(#clip-a-2)"><path d="M 12,6.5 A 7,7 0 0 0 6.2617188,9.494141 7,7 0 0 0 12,12.5 7,7 0 0 0 17.738281,9.505859 7,7 0 0 0 12,6.5 Z M 12,7 c 1.383333,0 2.5,1.116667 2.5,2.5 C 14.5,10.883333 13.383333,12 12,12 10.616667,12 9.5,10.883333 9.5,9.5 9.5,8.116667 10.616667,7 12,7 Z m 0,1 c -0.83,0 -1.5,0.67 -1.5,1.5 0,0.83 0.67,1.5 1.5,1.5 0.83,0 1.5,-0.67 1.5,-1.5 C 13.5,8.67 12.83,8 12,8 Z"></path></g><g style="fill: #26a69a" clip-path="url(#clip-b-2)"><path d="M 12,6.5 A 7,7 0 0 0 6.2617188,9.494141 7,7 0 0 0 12,12.5 7,7 0 0 0 17.738281,9.505859 7,7 0 0 0 12,6.5 Z M 12,7 c 1.383333,0 2.5,1.116667 2.5,2.5 C 14.5,10.883333 13.383333,12 12,12 10.616667,12 9.5,10.883333 9.5,9.5 9.5,8.116667 10.616667,7 12,7 Z m 0,1 c -0.83,0 -1.5,0.67 -1.5,1.5 0,0.83 0.67,1.5 1.5,1.5 0.83,0 1.5,-0.67 1.5,-1.5 C 13.5,8.67 12.83,8 12,8 Z"></path></g><g style="fill: #eeeeee" clip-path="url(#clip-a-2)"><path d="m 12,14 c 2.33,0 4.31,1.46 5.11,3.5 H 6.89 C 7.69,15.46 9.67,14 12,14 Z"></path><path d="m 8,16 1,5 1,-5 z"></path><path d="m 14,16 1,5 1,-5 z"></path></g><g style="fill: #e0e0e0" clip-path="url(#clip-b-2)"><path d="m 12,14 c 2.33,0 4.31,1.46 5.11,3.5 H 6.89 C 7.69,15.46 9.67,14 12,14 Z"></path><path d="m 8,16 1,5 1,-5 z"></path><path d="m 14,16 1,5 1,-5 z"></path></g></svg>