<svg width="96" height="96" viewBox="0 0 24 24" xmlns="http://www.w3.org/2000/svg"><defs><clipPath id="clip-a-0"><rect width="12" height="24" x="0" y="0"></rect></clipPath><clipPath id="clip-b-0"><rect width="12" height="24" x="12" y="0"></rect></clipPath></defs><g style="fill: #fdd835" clip-path="url(#clip-a-0)"><path d="M 14.444444,0.99999994 12,3.4444444 9.5555556,0.99999994 0.99999994,9.5555556 3.4444444,12 0.99999994,14.444444 9.5555556,23 12,20.555556 14.444444,23 23,14.444444 20.555556,12 23,9.5555556 Z"></path></g><g style="fill: #fbc02d" clip-path="url(#clip-b-0)"><path d="M 14.444444,0.99999994 12,3.4444444 9.5555556,0.99999994 0.99999994,9.5555556 3.4444444,12 0.99999994,14.444444 9.5555556,23 12,20.555556 14.444444,23 23,14.444444 20.555556,12 23,9.5555556 Z"></path></g><g style="fill: #616161" clip-path="url(#clip-a-0)"><rect width="6" height="1" x="9.7279215" y="0.20710692" transform="rotate(45)"></rect><rect transform="rotate(135)" y="-13.227921" x="-2.2928932" height="1" width="6"></rect><rect transform="rotate(45)" y="-4.7426405" x="14.67767" height="1" width="6"></rect><rect width="6" height="1" x="-7.2426405" y="-18.17767" transform="rotate(135)"></rect></g><g style="fill: #424242" clip-path="url(#clip-b-0)"><rect width="6" height="1" x="9.7279215" y="0.20710692" transform="rotate(45)"></rect><rect transform="rotate(135)" y="-13.227921" x="-2.2928932" height="1" width="6"></rect><rect transform="rotate(45)" y="-4.7426405" x="14.67767" height="1" width="6"></rect><rect width="6" height="1" x="-7.2426405" y="-18.17767" transform="rotate(135)"></rect></g><g style="fill: #f06292" clip-path="url(#clip-a-0)"><path d="m 12,14 c 2.33,0 4.31,1.46 5.11,3.5 H 6.89 C 7.69,15.46 9.67,14 12,14 Z"></path></g><g style="fill: #ec407a" clip-path="url(#clip-b-0)"><path d="m 12,14 c 2.33,0 4.31,1.46 5.11,3.5 H 6.89 C 7.69,15.46 9.67,14 12,14 Z"></path></g></svg>