<?xml version="1.0" encoding="UTF-8" standalone="no"?>
<svg
   xmlns:dc="http://purl.org/dc/elements/1.1/"
   xmlns:cc="http://creativecommons.org/ns#"
   xmlns:rdf="http://www.w3.org/1999/02/22-rdf-syntax-ns#"
   xmlns:svg="http://www.w3.org/2000/svg"
   xmlns="http://www.w3.org/2000/svg"
   xmlns:sodipodi="http://sodipodi.sourceforge.net/DTD/sodipodi-0.dtd"
   xmlns:inkscape="http://www.inkscape.org/namespaces/inkscape"
   fill="#000000"
   height="24"
   viewBox="0 0 24 24"
   width="24"
   id="svg2"
   version="1.1"
   inkscape:version="0.92.3 (2405546, 2018-03-11)"
   sodipodi:docname="avatars.svg">
  <metadata
     id="metadata12">
    <rdf:RDF>
      <cc:Work
         rdf:about="">
        <dc:format>image/svg+xml</dc:format>
        <dc:type
           rdf:resource="http://purl.org/dc/dcmitype/StillImage" />
        <dc:title />
      </cc:Work>
    </rdf:RDF>
  </metadata>
  <defs
     id="defs10" />
  <sodipodi:namedview
     pagecolor="#ffffff"
     bordercolor="#666666"
     borderopacity="1"
     objecttolerance="10"
     gridtolerance="10"
     guidetolerance="10"
     inkscape:pageopacity="0"
     inkscape:pageshadow="2"
     inkscape:window-width="1680"
     inkscape:window-height="1027"
     id="namedview8"
     showgrid="true"
     inkscape:zoom="18.826718"
     inkscape:cx="6.7149577"
     inkscape:cy="7.5418037"
     inkscape:window-x="-8"
     inkscape:window-y="-8"
     inkscape:window-maximized="1"
     inkscape:current-layer="layer17">
    <inkscape:grid
       type="xygrid"
       id="grid4140"
       empspacing="2" />
  </sodipodi:namedview>
  <g
     inkscape:groupmode="layer"
     id="layer7"
     inkscape:label="Body 0"
     style="display:inline">
    <circle
       style="display:inline;opacity:1;fill:#0000ff;fill-opacity:1;stroke:none;stroke-width:1;stroke-miterlimit:4;stroke-dasharray:none;stroke-dashoffset:0;stroke-opacity:1"
       id="path822"
       cx="12"
       cy="12"
       r="10" />
  </g>
  <g
     inkscape:groupmode="layer"
     id="layer2"
     inkscape:label="Body 1"
     style="display:none">
    <path
       style="display:inline;opacity:1;fill:#0000ff;fill-opacity:1;stroke:none;stroke-width:1.38744366;stroke-miterlimit:4;stroke-dasharray:none;stroke-dashoffset:0;stroke-opacity:1"
       d="M 5,1 V 5 H 1 v 14 h 4 v 4 h 14 v -4 h 4 V 5 H 19 V 1 Z"
       id="rect869"
       inkscape:connector-curvature="0" />
  </g>
  <g
     inkscape:groupmode="layer"
     id="layer3"
     inkscape:label="Body 2"
     style="display:none">
    <rect
       style="display:inline;opacity:1;fill:#0000ff;fill-opacity:1;stroke:none;stroke-width:1;stroke-miterlimit:4;stroke-dasharray:none;stroke-dashoffset:0;stroke-opacity:1"
       id="rect851"
       width="20"
       height="20"
       x="2"
       y="2"
       rx="2"
       ry="2" />
  </g>
  <g
     inkscape:groupmode="layer"
     id="layer4"
     inkscape:label="Body 3"
     style="display:none">
    <path
       id="path874"
       d="M 14.444444,0.99999994 12,3.4444444 9.5555556,0.99999994 0.99999994,9.5555556 3.4444444,12 0.99999994,14.444444 9.5555556,23 12,20.555556 14.444444,23 23,14.444444 20.555556,12 23,9.5555556 Z"
       style="display:inline;opacity:1;fill:#0000ff;fill-opacity:1;stroke:none;stroke-width:1.19908655;stroke-miterlimit:4;stroke-dasharray:none;stroke-dashoffset:0;stroke-opacity:1"
       inkscape:connector-curvature="0" />
  </g>
  <g
     inkscape:groupmode="layer"
     id="layer5"
     inkscape:label="Body 4"
     style="display:none">
    <path
       style="display:inline;opacity:1;fill:#0000ff;fill-opacity:1;stroke:none;stroke-width:1.06904495;stroke-miterlimit:4;stroke-dasharray:none;stroke-dashoffset:0;stroke-opacity:1"
       d="M 4,2 5.5976562,9.9882812 1.0507812,14.535156 2.4648438,15.949219 6.0683594,12.345703 8,22 h 8 l 1.931641,-9.654297 3.603515,3.603516 1.414063,-1.414063 L 18.402344,9.9882812 20,2 Z"
       id="rect861"
       inkscape:connector-curvature="0" />
  </g>
  <g
     inkscape:groupmode="layer"
     id="layer6"
     inkscape:label="Body 5"
     style="display:none">
    <path
       sodipodi:type="star"
       style="display:inline;opacity:1;fill:#0000ff;fill-opacity:1;stroke:none;stroke-width:1.13957655;stroke-miterlimit:4;stroke-dasharray:none;stroke-dashoffset:0;stroke-opacity:1"
       id="path853"
       sodipodi:sides="6"
       sodipodi:cx="12"
       sodipodi:cy="12"
       sodipodi:r1="11.547005"
       sodipodi:r2="10"
       sodipodi:arg1="0.52359878"
       sodipodi:arg2="1.0471976"
       inkscape:flatsided="true"
       inkscape:rounded="0"
       inkscape:randomized="0"
       d="M 21.999999,17.773502 12,23.547005 2.0000006,17.773502 l 0,-11.5470044 L 12,0.4529953 21.999999,6.2264977 Z" />
  </g>
  <g
     inkscape:groupmode="layer"
     id="layer1"
     inkscape:label="Body 6"
     style="display:none">
    <circle
       cy="10"
       cx="12"
       id="circle154"
       style="display:inline;opacity:1;fill:#0000ff;fill-opacity:1;stroke:none;stroke-width:0.89999998;stroke-miterlimit:4;stroke-dasharray:none;stroke-dashoffset:0;stroke-opacity:1"
       r="9" />
    <rect
       style="opacity:1;fill:#0000ff;fill-opacity:1;stroke:none;stroke-width:1.29099441;stroke-miterlimit:4;stroke-dasharray:none;stroke-dashoffset:0;stroke-opacity:1"
       id="rect157"
       width="10"
       height="9"
       x="7"
       y="14"
       rx="1.6666667"
       ry="1" />
  </g>
  <g
     inkscape:groupmode="layer"
     id="layer8"
     inkscape:label="Body 7"
     style="display:none">
    <path
       style="display:inline;opacity:1;fill:#0000ff;fill-opacity:1;stroke:none;stroke-width:0.95346266;stroke-miterlimit:4;stroke-dasharray:none;stroke-dashoffset:0;stroke-opacity:1"
       d="M 7,2 6,6 H 2 l 2,8 -2,8 H 22 L 20,14 22,6 H 18 L 17,2 Z"
       id="rect855"
       inkscape:connector-curvature="0"
       sodipodi:nodetypes="ccccccccccc" />
  </g>
  <g
     inkscape:groupmode="layer"
     id="layer9"
     inkscape:label="Eyes 0"
     style="display:inline">
    <path
       d="M 15.5,11 C 16.33,11 17,10.33 17,9.5 17,8.67 16.33,8 15.5,8 14.67,8 14,8.67 14,9.5 c 0,0.83 0.67,1.5 1.5,1.5 z"
       id="path828"
       style="display:inline;opacity:1;fill:#ff0000"
       inkscape:connector-curvature="0" />
    <path
       d="M 8.5,11 C 9.33,11 10,10.33 10,9.5 10,8.67 9.33,8 8.5,8 7.67,8 7,8.67 7,9.5 7,10.33 7.67,11 8.5,11 Z"
       id="path826"
       style="display:inline;opacity:1;fill:#ff0000"
       inkscape:connector-curvature="0" />
    <path
       inkscape:connector-curvature="0"
       style="display:inline;opacity:1;fill:#ff0000"
       id="path198"
       d="M 15.5,11 C 16.33,11 17,10.33 17,9.5 17,8.67 16.33,8 15.5,8 14.67,8 14,8.67 14,9.5 c 0,0.83 0.67,1.5 1.5,1.5 z" />
  </g>
  <g
     inkscape:groupmode="layer"
     id="layer13"
     inkscape:label="Eyes 1"
     style="display:none">
    <rect
       style="display:inline;opacity:1;fill:#ff0000;fill-opacity:1;stroke:none;stroke-width:1;stroke-miterlimit:4;stroke-dasharray:none;stroke-dashoffset:0;stroke-opacity:1"
       id="rect958"
       width="6"
       height="1"
       x="9.7279215"
       y="0.20710692"
       transform="rotate(45)" />
    <rect
       transform="rotate(135)"
       y="-13.227921"
       x="-2.2928932"
       height="1"
       width="6"
       id="rect960"
       style="display:inline;opacity:1;fill:#ff0000;fill-opacity:1;stroke:none;stroke-width:1;stroke-miterlimit:4;stroke-dasharray:none;stroke-dashoffset:0;stroke-opacity:1" />
    <rect
       transform="rotate(45)"
       y="-4.7426405"
       x="14.67767"
       height="1"
       width="6"
       id="rect962"
       style="display:inline;opacity:1;fill:#ff0000;fill-opacity:1;stroke:none;stroke-width:1;stroke-miterlimit:4;stroke-dasharray:none;stroke-dashoffset:0;stroke-opacity:1" />
    <rect
       style="display:inline;opacity:1;fill:#ff0000;fill-opacity:1;stroke:none;stroke-width:1;stroke-miterlimit:4;stroke-dasharray:none;stroke-dashoffset:0;stroke-opacity:1"
       id="rect964"
       width="6"
       height="1"
       x="-7.2426405"
       y="-18.17767"
       transform="rotate(135)" />
  </g>
  <g
     inkscape:groupmode="layer"
     id="layer10"
     inkscape:label="Eyes 2"
     style="display:none">
    <path
       style="display:inline;opacity:1;fill:#ff0000;stroke-width:1.66666663"
       d="M 15.5,7 C 14.116667,7 13,8.1166667 13,9.5 13,10.883333 14.116667,12 15.5,12 16.883333,12 18,10.883333 18,9.5 18,8.1166667 16.883333,7 15.5,7 Z m 0,1 C 16.33,8 17,8.67 17,9.5 17,10.33 16.33,11 15.5,11 14.67,11 14,10.33 14,9.5 14,8.67 14.67,8 15.5,8 Z"
       id="path113"
       inkscape:connector-curvature="0" />
    <path
       id="path117"
       d="M 8.5,7 C 7.116667,7 6,8.1166667 6,9.5 6,10.883333 7.116667,12 8.5,12 9.883333,12 11,10.883333 11,9.5 11,8.1166667 9.883333,7 8.5,7 Z m 0,1 C 9.33,8 10,8.67 10,9.5 10,10.33 9.33,11 8.5,11 7.67,11 7,10.33 7,9.5 7,8.67 7.67,8 8.5,8 Z"
       style="display:inline;opacity:1;fill:#ff0000;stroke-width:1.66666663"
       inkscape:connector-curvature="0" />
    <path
       style="display:inline;opacity:1;fill:#ff0000;stroke-width:1.50608659"
       d="m 12,8 c -0.989493,0 -1.8112,0.857662 -2,2 h 0.753315 C 10.935894,9.418302 11.466399,9 12,9 c 0.533601,0 1.064106,0.418302 1.246685,1 H 14 C 13.8112,8.857662 12.989493,8 12,8 Z"
       id="path121"
       inkscape:connector-curvature="0"
       sodipodi:nodetypes="sccsccs" />
  </g>
  <g
     inkscape:groupmode="layer"
     id="layer11"
     inkscape:label="Eyes 3"
     style="display:none">
    <path
       style="opacity:1;fill:#ff0000;fill-opacity:1;stroke:none;stroke-width:1;stroke-miterlimit:4;stroke-dasharray:none;stroke-dashoffset:0;stroke-opacity:1"
       d="M 12,6.5 A 7,7 0 0 0 6.2617188,9.494141 7,7 0 0 0 12,12.5 7,7 0 0 0 17.738281,9.505859 7,7 0 0 0 12,6.5 Z M 12,7 c 1.383333,0 2.5,1.116667 2.5,2.5 C 14.5,10.883333 13.383333,12 12,12 10.616667,12 9.5,10.883333 9.5,9.5 9.5,8.116667 10.616667,7 12,7 Z m 0,1 c -0.83,0 -1.5,0.67 -1.5,1.5 0,0.83 0.67,1.5 1.5,1.5 0.83,0 1.5,-0.67 1.5,-1.5 C 13.5,8.67 12.83,8 12,8 Z"
       id="path129"
       inkscape:connector-curvature="0" />
  </g>
  <g
     inkscape:groupmode="layer"
     id="layer12"
     inkscape:label="Eyes 4"
     style="display:none">
    <path
       sodipodi:nodetypes="sccsccs"
       inkscape:connector-curvature="0"
       id="path145"
       d="m 12,8 c -0.989493,0 -1.8112,0.857662 -2,2 h 0.753315 C 10.935894,9.418302 11.466399,9 12,9 c 0.533601,0 1.064106,0.418302 1.246685,1 H 14 C 13.8112,8.857662 12.989493,8 12,8 Z"
       style="display:inline;opacity:1;fill:#ff0000;stroke-width:1.50608659" />
    <rect
       style="opacity:1;fill:#ff0000;fill-opacity:1;stroke:none;stroke-width:1;stroke-miterlimit:4;stroke-dasharray:none;stroke-dashoffset:0;stroke-opacity:1"
       id="rect150"
       width="6"
       height="6"
       x="5"
       y="7"
       rx="1"
       ry="1" />
    <rect
       ry="1"
       rx="1"
       y="7"
       x="13"
       height="6"
       width="6"
       id="rect152"
       style="opacity:1;fill:#ff0000;fill-opacity:1;stroke:none;stroke-width:1;stroke-miterlimit:4;stroke-dasharray:none;stroke-dashoffset:0;stroke-opacity:1" />
  </g>
  <g
     inkscape:groupmode="layer"
     id="layer14"
     inkscape:label="Eyes 5"
     style="display:none">
    <path
       inkscape:connector-curvature="0"
       style="display:inline;opacity:1;fill:#ff0000;stroke-width:1.41421354"
       id="path160"
       d="m 15.888229,10.948889 c 1.603436,-0.42964 2.724368,-1.4236277 2.509548,-2.2253461 -0.214819,-0.8017185 -1.682569,-2.0581593 -3.286006,-1.6285196 -1.603436,0.4296396 -2.724368,2.3797154 -2.509548,3.1814337 0.214819,0.801719 1.682569,1.102071 3.286006,0.672432 z"
       sodipodi:nodetypes="scscs" />
    <path
       sodipodi:nodetypes="scscs"
       d="M 8.1117707,10.948889 C 6.5083347,10.519249 5.3874027,9.5252613 5.6022227,8.7235429 5.8170417,7.9218244 7.2847917,6.6653836 8.8882287,7.0950233 10.491665,7.5246629 11.612597,9.4747387 11.397777,10.276457 11.182958,11.078176 9.7152077,11.378528 8.1117707,10.948889 Z"
       id="path284"
       style="display:inline;opacity:1;fill:#ff0000;stroke-width:1.41421354"
       inkscape:connector-curvature="0" />
  </g>
  <g
     inkscape:groupmode="layer"
     id="layer15"
     inkscape:label="Eyes 6"
     style="display:none">
    <path
       style="fill:#ff0000;fill-rule:evenodd;stroke:none;stroke-width:1px;stroke-linecap:butt;stroke-linejoin:miter;stroke-opacity:1"
       d="m 6,7 -2,2 4,4 3,-1 V 10 L 10.95313,9.970703 C 10.733059,11.127302 9.7218293,12 8.5,12 7.116667,12 6,10.883333 6,9.5 6,8.7128681 6.3690487,8.0203566 6.9355469,7.5625 Z M 7.8867188,8.1328125 C 7.3644757,8.3671413 7,8.8893367 7,9.5 7,10.33 7.67,11 8.5,11 9.33,11 10,10.33 10,9.5 10,9.463163 9.99088,9.42874 9.988281,9.3925781 Z"
       id="path187"
       inkscape:connector-curvature="0" />
    <path
       style="fill:#ff0000;fill-rule:evenodd;stroke:none;stroke-width:1px;stroke-linecap:butt;stroke-linejoin:miter;stroke-opacity:1"
       d="M 18,7 17.064453,7.5625 C 17.630951,8.0203566 18,8.7128681 18,9.5 18,10.883333 16.883333,12 15.5,12 14.278171,12 13.266941,11.127302 13.046875,9.9707031 L 13,10 v 2 l 3,1 4,-4 z M 16.113281,8.1328125 14.011719,9.3925781 C 14.009124,9.4287398 14,9.4631634 14,9.5 14,10.33 14.67,11 15.5,11 16.33,11 17,10.33 17,9.5 17,8.8893367 16.635524,8.3671413 16.113281,8.1328125 Z"
       id="path193"
       inkscape:connector-curvature="0" />
  </g>
  <g
     inkscape:groupmode="layer"
     id="layer16"
     inkscape:label="Eyes 7"
     style="display:none">
    <rect
       style="opacity:1;fill:#ff0000;fill-opacity:1;stroke:none;stroke-width:1.18321598;stroke-miterlimit:4;stroke-dasharray:none;stroke-dashoffset:0;stroke-opacity:1"
       id="rect204"
       width="14"
       height="3"
       x="5"
       y="8"
       rx="1"
       ry="1" />
  </g>
  <g
     inkscape:groupmode="layer"
     id="layer17"
     inkscape:label="Mouth 0"
     style="display:inline">
    <path
       d="m 12,17.5 c 2.33,0 4.31,-1.46 5.11,-3.5 H 6.89 c 0.8,2.04 2.78,3.5 5.11,3.5 z"
       id="path6"
       style="display:inline;opacity:1;fill:#00ffff"
       inkscape:connector-curvature="0" />
  </g>
  <g
     inkscape:groupmode="layer"
     id="layer18"
     inkscape:label="Mouth 1"
     style="display:none">
    <path
       inkscape:connector-curvature="0"
       style="display:inline;opacity:1;fill:#00ffff"
       id="path926"
       d="m 12,14 c 2.33,0 4.31,1.46 5.11,3.5 H 6.89 C 7.69,15.46 9.67,14 12,14 Z" />
  </g>
  <g
     inkscape:groupmode="layer"
     id="layer19"
     inkscape:label="Mouth 2"
     style="display:none">
    <path
       d="m 12,17 c 0.83,0 1.5,-0.67 1.5,-1.5 0,-0.83 -0.67,-1.5 -1.5,-1.5 -0.83,0 -1.5,0.67 -1.5,1.5 0,0.83 0.67,1.5 1.5,1.5 z"
       id="path828-6"
       style="display:inline;opacity:1;fill:#00ffff"
       inkscape:connector-curvature="0" />
  </g>
  <g
     inkscape:groupmode="layer"
     id="layer24"
     inkscape:label="Mouth 3"
     style="display:none">
    <path
       d="m 12,17.5 c 2.33,0 4.31,-1.46 5.11,-3.5 H 6.89 c 0.8,2.04 2.78,3.5 5.11,3.5 z"
       id="path953"
       style="display:inline;opacity:1;fill:#00ffff"
       inkscape:connector-curvature="0" />
    <path
       style="display:inline;fill:#00ffff;fill-rule:evenodd;stroke:none;stroke-width:1px;stroke-linecap:butt;stroke-linejoin:miter;stroke-opacity:1"
       d="m 8,15 1,5 1,-5 z"
       id="path949"
       inkscape:connector-curvature="0" />
    <path
       inkscape:connector-curvature="0"
       id="path951"
       d="m 14,15 1,5 1,-5 z"
       style="display:inline;fill:#00ffff;fill-rule:evenodd;stroke:none;stroke-width:1px;stroke-linecap:butt;stroke-linejoin:miter;stroke-opacity:1" />
  </g>
  <g
     inkscape:groupmode="layer"
     id="layer20"
     inkscape:label="Mouth 4"
     style="display:none">
    <path
       style="display:inline;opacity:1;fill:#00ffff;fill-opacity:1;stroke:none;stroke-width:1;stroke-miterlimit:4;stroke-dasharray:none;stroke-dashoffset:0;stroke-opacity:1"
       d="m 6,14 c -0.554,0 -1,0.446 -1,1 v 3 c 0,0.554 0.446,1 1,1 h 12 c 0.554,0 1,-0.446 1,-1 v -3 c 0,-0.554 -0.446,-1 -1,-1 z m 1.5,1 C 7.777,15 8,15.223 8,15.5 v 2 C 8,17.777 7.777,18 7.5,18 7.223,18 7,17.777 7,17.5 v -2 C 7,15.223 7.223,15 7.5,15 Z m 3,0 c 0.277,0 0.5,0.223 0.5,0.5 v 2 C 11,17.777 10.777,18 10.5,18 10.223,18 10,17.777 10,17.5 v -2 C 10,15.223 10.223,15 10.5,15 Z m 3,0 c 0.277,0 0.5,0.223 0.5,0.5 v 2 C 14,17.777 13.777,18 13.5,18 13.223,18 13,17.777 13,17.5 v -2 C 13,15.223 13.223,15 13.5,15 Z m 3,0 c 0.277,0 0.5,0.223 0.5,0.5 v 2 C 17,17.777 16.777,18 16.5,18 16.223,18 16,17.777 16,17.5 v -2 C 16,15.223 16.223,15 16.5,15 Z"
       id="rect235"
       inkscape:connector-curvature="0"
       sodipodi:nodetypes="sssssssssssssssssssssssssssssssssssss" />
  </g>
  <g
     inkscape:label="Mouth 5"
     id="g250"
     inkscape:groupmode="layer"
     style="display:none">
    <path
       style="display:inline;opacity:1;fill:#00ffff;fill-opacity:1;stroke:none;stroke-width:1;stroke-miterlimit:4;stroke-dasharray:none;stroke-dashoffset:0;stroke-opacity:1"
       d="m 6,14 c -0.554,0 -1,0.446 -1,1 v 3 c 0,0.554 0.446,1 1,1 h 12 c 0.554,0 1,-0.446 1,-1 v -3 c 0,-0.554 -0.446,-1 -1,-1 z m 3,1 h 2 v 2 c 0,0.554 -0.446,1 -1,1 -0.554,0 -1,-0.446 -1,-1 z m 4,0 h 2 v 2 c 0,0.554 -0.446,1 -1,1 -0.554,0 -1,-0.446 -1,-1 z"
       id="path248"
       inkscape:connector-curvature="0" />
  </g>
  <g
     style="display:none"
     inkscape:label="Mouth 6"
     id="g261"
     inkscape:groupmode="layer">
    <path
       style="display:inline;opacity:1;fill:#00ffff;fill-opacity:1;stroke:none;stroke-width:1;stroke-miterlimit:4;stroke-dasharray:none;stroke-dashoffset:0;stroke-opacity:1"
       d="M 7.5,15 C 7.223,15 7,15.223 7,15.5 V 16 H 6.5 C 6.223,16 6,16.223 6,16.5 6,16.777 6.223,17 6.5,17 H 7 v 0.5 C 7,17.777 7.223,18 7.5,18 7.777,18 8,17.777 8,17.5 V 17 h 2 v 0.5 c 0,0.277 0.223,0.5 0.5,0.5 0.277,0 0.5,-0.223 0.5,-0.5 V 17 h 2 v 0.5 c 0,0.277 0.223,0.5 0.5,0.5 0.277,0 0.5,-0.223 0.5,-0.5 V 17 h 2 v 0.5 c 0,0.277 0.223,0.5 0.5,0.5 0.277,0 0.5,-0.223 0.5,-0.5 V 17 h 0.5 C 17.777,17 18,16.777 18,16.5 18,16.223 17.777,16 17.5,16 H 17 V 15.5 C 17,15.223 16.777,15 16.5,15 16.223,15 16,15.223 16,15.5 V 16 H 14 V 15.5 C 14,15.223 13.777,15 13.5,15 13.223,15 13,15.223 13,15.5 V 16 H 11 V 15.5 C 11,15.223 10.777,15 10.5,15 10.223,15 10,15.223 10,15.5 V 16 H 8 V 15.5 C 8,15.223 7.777,15 7.5,15 Z"
       id="path269"
       inkscape:connector-curvature="0" />
  </g>
  <g
     style="display:none"
     inkscape:label="Mouth 7"
     id="g282"
     inkscape:groupmode="layer">
    <path
       inkscape:connector-curvature="0"
       style="display:inline;opacity:1;fill:#00ffff"
       id="path276"
       d="m 12,14 c 2.33,0 4.31,1.46 5.11,3.5 H 6.89 C 7.69,15.46 9.67,14 12,14 Z" />
    <path
       inkscape:connector-curvature="0"
       id="path278"
       d="m 8,16 1,5 1,-5 z"
       style="display:inline;fill:#00ffff;fill-rule:evenodd;stroke:none;stroke-width:1px;stroke-linecap:butt;stroke-linejoin:miter;stroke-opacity:1" />
    <path
       style="display:inline;fill:#00ffff;fill-rule:evenodd;stroke:none;stroke-width:1px;stroke-linecap:butt;stroke-linejoin:miter;stroke-opacity:1"
       d="m 14,16 1,5 1,-5 z"
       id="path280"
       inkscape:connector-curvature="0" />
  </g>
</svg>
